<svg id="Group_11429" data-name="Group 11429" xmlns="http://www.w3.org/2000/svg" width="13.799" height="12.261" viewBox="0 0 13.799 12.261">
  <g id="Group_9" data-name="Group 9" transform="translate(0 0)">
    <path id="Path_45" data-name="Path 45" d="M4.01,116.04a8.6,8.6,0,0,0,1.117-.072v-3.888a8.6,8.6,0,0,0-1.117-.072c-2.214,0-4.009.814-4.009,1.818v.394C0,115.226,1.8,116.04,4.01,116.04Z" transform="translate(-0.001 -108.929)" fill="#5D6676"/>
    <path id="Path_46" data-name="Path 46" d="M4.01,215.759a8.605,8.605,0,0,0,1.117-.072v-1.14a8.6,8.6,0,0,1-1.117.072c-1.933,0-3.546-.62-3.925-1.446a.887.887,0,0,0-.084.372v.394C0,214.945,1.8,215.759,4.01,215.759Z" transform="translate(-0.001 -206.618)" fill="#5D6676"/>
    <path id="Path_47" data-name="Path 47" d="M5.127,273.721v-.089a8.593,8.593,0,0,1-1.117.072c-1.933,0-3.546-.62-3.925-1.446A.886.886,0,0,0,0,272.63v.394c0,1,1.8,1.818,4.009,1.818a8.518,8.518,0,0,0,1.267-.093,1.435,1.435,0,0,1-.15-.635Z" transform="translate(0 -263.672)" fill="#5D6676"/>
    <path id="Path_48" data-name="Path 48" d="M172.248,22.379c-2.214,0-4.009.814-4.009,1.818v.394c0,1,1.8,1.818,4.009,1.818s4.009-.814,4.009-1.818V24.2C176.258,23.193,174.462,22.379,172.248,22.379Z" transform="translate(-162.458 -22.379)" fill="#5D6676"/>
    <path id="Path_49" data-name="Path 49" d="M172.248,124.99c-1.933,0-3.546-.62-3.925-1.446a.887.887,0,0,0-.084.372v.394c0,1,1.8,1.818,4.009,1.818s4.009-.814,4.009-1.818v-.394a.886.886,0,0,0-.084-.372C175.794,124.37,174.181,124.99,172.248,124.99Z" transform="translate(-162.458 -120.068)" fill="#5D6676"/>
    <path id="Path_50" data-name="Path 50" d="M172.248,184.074c-1.933,0-3.546-.62-3.925-1.446a.887.887,0,0,0-.084.372v.394c0,1,1.8,1.818,4.009,1.818s4.009-.814,4.009-1.818V183a.886.886,0,0,0-.084-.372C175.794,183.454,174.181,184.074,172.248,184.074Z" transform="translate(-162.458 -177.122)" fill="#5D6676"/>
    <path id="Path_51" data-name="Path 51" d="M172.248,246.347c-1.933,0-3.546-.62-3.925-1.446a.887.887,0,0,0-.084.372v.394c0,1,1.8,1.818,4.009,1.818s4.009-.814,4.009-1.818v-.394a.886.886,0,0,0-.084-.372C175.794,245.727,174.181,246.347,172.248,246.347Z" transform="translate(-162.458 -237.255)" fill="#5D6676"/>
    <path id="Path_52" data-name="Path 52" d="M172.248,305.43c-1.933,0-3.546-.62-3.925-1.446a.887.887,0,0,0-.084.372v.394c0,1,1.8,1.818,4.009,1.818s4.009-.814,4.009-1.818v-.394a.886.886,0,0,0-.084-.372C175.794,304.81,174.181,305.43,172.248,305.43Z" transform="translate(-162.458 -294.308)" fill="#5D6676"/>
  </g>
</svg>
