<svg xmlns="http://www.w3.org/2000/svg" width="74" height="74" viewBox="0 0 74 74">
  <g id="Group_156" data-name="Group 156" transform="translate(-185 -584)">
    <circle id="Ellipse_4" data-name="Ellipse 4" cx="37" cy="37" r="37" transform="translate(185 584)" fill="#42454a"/>
    <g id="Group_13" data-name="Group 13" transform="translate(202 580.85)">
      <g id="Group_9" data-name="Group 9" transform="translate(0 22.379)">
        <path id="Path_45" data-name="Path 45" d="M11.623,123.694a24.913,24.913,0,0,0,3.239-.208v-11.27a24.931,24.931,0,0,0-3.239-.208C5.2,112.009,0,114.369,0,117.28v1.143C0,121.334,5.2,123.694,11.623,123.694Z" transform="translate(-0.001 -103.082)" fill="#17a2b8"/>
        <path id="Path_46" data-name="Path 46" d="M11.623,220.668a24.949,24.949,0,0,0,3.239-.208v-3.3a24.927,24.927,0,0,1-3.239.209c-5.6,0-10.279-1.8-11.377-4.191A2.571,2.571,0,0,0,0,214.254V215.4C0,218.308,5.2,220.668,11.623,220.668Z" transform="translate(-0.001 -194.171)" fill="#17a2b8"/>
        <path id="Path_47" data-name="Path 47" d="M14.86,276.5v-.257a24.925,24.925,0,0,1-3.239.209c-5.6,0-10.279-1.8-11.377-4.191A2.57,2.57,0,0,0,0,273.337v1.143c0,2.911,5.2,5.271,11.622,5.271a24.687,24.687,0,0,0,3.673-.269,4.158,4.158,0,0,1-.434-1.842Z" transform="translate(0 -247.37)" fill="#17a2b8"/>
        <path id="Path_48" data-name="Path 48" d="M179.861,22.379c-6.418,0-11.622,2.36-11.622,5.271v1.143c0,2.911,5.2,5.271,11.622,5.271s11.622-2.36,11.622-5.271V27.65C191.482,24.739,186.279,22.379,179.861,22.379Z" transform="translate(-151.482 -22.379)" fill="#17a2b8"/>
        <path id="Path_49" data-name="Path 49" d="M179.861,127.735c-5.6,0-10.279-1.8-11.377-4.191a2.57,2.57,0,0,0-.244,1.08v1.143c0,2.911,5.2,5.271,11.622,5.271s11.622-2.36,11.622-5.271v-1.143a2.57,2.57,0,0,0-.244-1.08C190.139,125.937,185.463,127.735,179.861,127.735Z" transform="translate(-151.482 -113.468)" fill="#17a2b8"/>
        <path id="Path_50" data-name="Path 50" d="M179.861,186.819c-5.6,0-10.279-1.8-11.377-4.191a2.57,2.57,0,0,0-.244,1.08v1.143c0,2.911,5.2,5.271,11.622,5.271s11.622-2.36,11.622-5.271v-1.143a2.57,2.57,0,0,0-.244-1.08C190.139,185.021,185.463,186.819,179.861,186.819Z" transform="translate(-151.482 -166.667)" fill="#17a2b8"/>
        <path id="Path_51" data-name="Path 51" d="M179.861,249.092c-5.6,0-10.279-1.8-11.377-4.191a2.57,2.57,0,0,0-.244,1.079v1.143c0,2.911,5.2,5.271,11.622,5.271s11.622-2.36,11.622-5.271V245.98a2.569,2.569,0,0,0-.244-1.079C190.139,247.294,185.463,249.092,179.861,249.092Z" transform="translate(-151.482 -222.738)" fill="#17a2b8"/>
        <path id="Path_52" data-name="Path 52" d="M179.861,308.175c-5.6,0-10.279-1.8-11.377-4.191a2.571,2.571,0,0,0-.244,1.079v1.143c0,2.911,5.2,5.271,11.622,5.271s11.622-2.36,11.622-5.271v-1.143a2.569,2.569,0,0,0-.244-1.079C190.139,306.377,185.463,308.175,179.861,308.175Z" transform="translate(-151.482 -275.936)" fill="#17a2b8"/>
      </g>
    </g>
  </g>
</svg>
