<svg xmlns="http://www.w3.org/2000/svg" viewBox="0 0 605.65 605.65" width="29.833" height="20.977" ><defs><style>.cls-1,.cls-2,.cls-3,.cls-4{fill:#009fdd;}.cls-1{opacity:0.6;}.cls-2{opacity:0.4;}.cls-4{opacity:0.8;}</style></defs><g id="Layer_2" data-name="Layer 2"><g id="Layer_1-2" data-name="Layer 1"><path class="cls-1" d="M93.59,332.46c20.44,7.7,40.88,12.48,62.38,12.93,41.68.89,80.67-10.2,117.93-28.1,8.08-3.88,16-8.2,23.92-12.34h0l5-2.13-5.1-5h0C234.49,233.76,195.31,158.69,194.06,66.21a32.67,32.67,0,0,0-3.93,6.07c-12.52,23.82-23.48,48.36-33.63,73.28-13.11,32.2-32.6,59.45-62.16,78.66C67.2,241.87,37,249.32,5,250.74c-5,.23-6.68.86-3,5.85C26.08,289.67,54,317.52,93.59,332.46Z"/><path class="cls-2" d="M273.19,93.59c-7.7,20.44-12.48,40.88-12.94,62.38-.88,41.68,10.21,80.67,28.1,117.93,3.89,8.08,8.21,16,12.35,23.92h0l2.13,5,5-5.1h0C371.89,234.49,447,195.31,539.44,194.06a33,33,0,0,0-6.07-3.93c-23.83-12.52-48.36-23.48-73.28-33.63-32.2-13.11-59.45-32.6-78.67-62.16C363.77,67.2,356.33,37,354.9,5c-.22-5-.86-6.68-5.85-3C316,26.08,288.12,54,273.19,93.59Z"/><path class="cls-3" d="M512.05,273.19c-20.43-7.7-40.88-12.48-62.38-12.94-41.68-.88-80.66,10.21-117.92,28.1-8.09,3.89-16,8.21-23.92,12.35h0l-5,2.13,5.11,5h0C371.16,371.89,410.33,447,411.59,539.44a32.91,32.91,0,0,0,3.92-6.07C428,509.54,439,485,449.14,460.09c13.12-32.2,32.61-59.45,62.16-78.67,27.15-17.65,57.38-25.09,89.34-26.52,5-.22,6.68-.86,3-5.85C579.57,316,551.69,288.12,512.05,273.19Z"/><path class="cls-4" d="M332.46,512.05c7.7-20.43,12.48-40.88,12.93-62.38.89-41.68-10.2-80.66-28.1-117.92-3.88-8.09-8.2-16-12.34-23.92h0l-2.13-5-5,5.11h0c-64.08,63.23-139.15,102.4-231.63,103.66a32.59,32.59,0,0,0,6.07,3.92C96.1,428,120.64,439,145.56,449.14c32.2,13.12,59.45,32.61,78.66,62.16,17.65,27.15,25.1,57.38,26.52,89.34.23,5,.86,6.68,5.85,3C289.67,579.57,317.52,551.69,332.46,512.05Z"/></g></g></svg>