<svg xmlns="http://www.w3.org/2000/svg" width="30" height="30" viewBox="0 0 30 30">
  <g id="Group_11586" data-name="Group 11586" transform="translate(10407 -3282)">
    <g id="Group_11324" data-name="Group 11324" transform="translate(-10741 3099)">
      <rect id="Rectangle_408" data-name="Rectangle 408" width="30" height="30" rx="6" transform="translate(334 183)" fill="#373f50"/>
    </g>
    <g id="Group_11326" data-name="Group 11326" transform="translate(-10500.343 3098.433)">
      <path id="Path_9819" data-name="Path 9819" d="M101,204.832v-1.577a.649.649,0,0,1,.716-.462c.53.014,1.061,0,1.591,0h.159v-.19q0-4.509,0-9.017a1.8,1.8,0,0,1,1.851-1.862q4.258,0,8.517,0a1.807,1.807,0,0,1,1.85,1.849q0,.559,0,1.118a.584.584,0,0,1-.649.645h-1.818v3.377q0,2.917,0,5.835a1.754,1.754,0,0,1-.938,1.626,3.986,3.986,0,0,1-.639.232h-9.063a.321.321,0,0,0-.063-.026,1.735,1.735,0,0,1-1.276-.9A4.43,4.43,0,0,1,101,204.832Zm3.614-2.036h5.492a.584.584,0,0,1,.646.649c0,.387-.005.774,0,1.161a.657.657,0,0,0,1.1.479.723.723,0,0,0,.217-.584q0-5.44,0-10.88a4.784,4.784,0,0,1,.1-.676c0-.021.005-.042.009-.071H105.4a.686.686,0,0,0-.789.787q0,4.472,0,8.945Zm-2.467,1.153c0,.192,0,.369,0,.545a.679.679,0,0,0,.765.768h6.823a3.723,3.723,0,0,1-.138-1.313Zm11.074-9.766h1.313c0-.238.01-.467,0-.695a.656.656,0,0,0-1.309,0C113.211,193.714,113.221,193.944,113.221,194.183Z" fill="#6e7c9a"/>
    </g>
  </g>
</svg>
