<svg xmlns="http://www.w3.org/2000/svg" width="24.443" height="19.589" viewBox="0 0 24.443 19.589">
  <g id="Group_316" data-name="Group 316" transform="translate(-1321.403 -34.304)">
    <g id="Group_308" data-name="Group 308" transform="translate(1345.624 -66.353)">
      <circle id="Ellipse_37" data-name="Ellipse 37" cx="7.249" cy="7.249" r="7.249" transform="translate(-24.221 100.658)" fill="#e0c89b"/>
      <text id="A" transform="translate(-21.625 110.46)" fill="#2b2c2c" font-size="11" font-family="Helvetica"><tspan x="0" y="0">A</tspan></text>
      <circle id="Ellipse_38" data-name="Ellipse 38" cx="7.249" cy="7.249" r="7.249" transform="translate(-14.275 105.749)" fill="#55adbc"/>
      <path id="Path_192" data-name="Path 192" d="M113.6,192.211c-1.039.011-2.078,0-3.117.009-.165,0-.219-.039-.214-.21.012-.455,0-.911.008-1.365,0-.166-.041-.218-.211-.214q-.682.018-1.365,0c-.167,0-.218.042-.213.211.012.455,0,.911.008,1.365,0,.168-.044.216-.212.212-.393-.008-.787-.006-1.18,0h-.787c-.393,0-.787,0-1.18,0-.168,0-.216.044-.212.212q.017.682,0,1.365c0,.169.046.215.213.212.485-.011.97.007,1.454-.009a.279.279,0,0,1,.33.241,3.691,3.691,0,0,0,.251.631,7.684,7.684,0,0,0,.843,1.321c.054.069.15.131.016.234a5.377,5.377,0,0,1-2.062,1.123c-.127.029-.154.07-.153.187.006.485.007.97,0,1.455,0,.139.049.164.173.15a3.9,3.9,0,0,0,.867-.187,7.607,7.607,0,0,0,2.352-1.4.224.224,0,0,1,.347,0,8.942,8.942,0,0,0,1.025.756,5.149,5.149,0,0,0,2.134.829c.1.011.239.076.234-.139-.011-.495,0-.99,0-1.484,0-.09-.015-.132-.121-.154a5.18,5.18,0,0,1-2.021-1.073c-.147-.111-.155-.178-.043-.315a5.972,5.972,0,0,0,1.1-1.98c.05-.16.131-.187.277-.185.495.007.99,0,1.484.006.164,0,.22-.037.215-.209-.012-.445-.014-.891,0-1.336C113.846,192.266,113.8,192.209,113.6,192.211Zm-4.12,2.7c-.063.089-.106.131-.188.012a4.781,4.781,0,0,1-.542-.916h1.268A5.029,5.029,0,0,1,109.48,194.914Z" transform="translate(-116.36 -81.965)" fill="#fff"/>
    </g>
  </g>
</svg>
