<svg xmlns="http://www.w3.org/2000/svg" width="19.523" height="11.56" viewBox="0 0 19.523 11.56">
  <g id="Group_11750" data-name="Group 11750" transform="translate(-1263.157 -706.618)">
    <path id="Polygon_30" data-name="Polygon 30" d="M4.919,1.453a1,1,0,0,1,1.721,0l4.026,6.8a1,1,0,0,1-.86,1.509H1.754a1,1,0,0,1-.86-1.509Z" transform="translate(1282.681 706.618) rotate(90)" fill="#00b4c9" opacity="0.498"/>
    <path id="Polygon_31" data-name="Polygon 31" d="M4.919,1.453a1,1,0,0,1,1.721,0l4.026,6.8a1,1,0,0,1-.86,1.509H1.754a1,1,0,0,1-.86-1.509Z" transform="translate(1272.919 706.618) rotate(90)" fill="#00b4c9"/>
  </g>
</svg>
