<svg xmlns="http://www.w3.org/2000/svg" width="19.455" height="19.456" viewBox="0 0 19.455 19.456">
  <g id="Group_11675" data-name="Group 11675" transform="translate(16488.455 -3983.292)">
    <g id="Group_11674" data-name="Group 11674" transform="translate(-16488.455 3983.292)">
      <path id="Path_9864" data-name="Path 9864" d="M65.2,140h.76c.054.013.108.03.163.04a3.77,3.77,0,0,1,3.07,2.488,7.991,7.991,0,0,1,.263,1.158v.342c-.029.2-.043.4-.091.6a3.733,3.733,0,0,1-2.945,2.985,3.682,3.682,0,0,1-3.831-1.346c-.165-.2-.3-.419-.448-.632l-4.752,2.544a3.9,3.9,0,0,1-.057,3.231l4.761,2.547a4.158,4.158,0,0,1,1.233-1.471,3.842,3.842,0,0,1,5.851,1.732,9.807,9.807,0,0,1,.279,1.213v.342c-.031.206-.045.415-.095.616a3.813,3.813,0,0,1-2.885,2.96c-.17.046-.344.074-.516.11H65.2a8.352,8.352,0,0,1-.841-.207,3.822,3.822,0,0,1-2.6-3.988.256.256,0,0,0-.167-.288q-2.344-1.247-4.684-2.5c-.072-.038-.145-.074-.211-.107a.276.276,0,0,0-.044.025c-.042.038-.083.078-.124.117a3.688,3.688,0,0,1-3.093,1.048,3.729,3.729,0,0,1-3.178-2.479,7.851,7.851,0,0,1-.254-.966v-.76c.061-.263.1-.533.187-.789a3.841,3.841,0,0,1,5.881-1.98c.258.178.483.4.73.613a.428.428,0,0,0,.058-.023q2.408-1.288,4.816-2.575c.1-.052.1-.114.1-.212a7.806,7.806,0,0,1,.009-1.1,3.848,3.848,0,0,1,3.03-3.209C64.943,140.053,65.071,140.026,65.2,140Z" transform="translate(-50 -140)" fill="#5d6676"/>
    </g>
  </g>
</svg>
