<svg xmlns="http://www.w3.org/2000/svg" width="18.186" height="18.186" viewBox="0 0 18.186 18.186">
  <g id="Group_241" data-name="Group 241" transform="translate(-2.288 8.032) rotate(-45)">
    <g id="Group_165" data-name="Group 165" transform="translate(3.235 0)">
      <g id="Group_164" data-name="Group 164" transform="translate(0)">
        <circle id="Ellipse_7" data-name="Ellipse 7" cx="4.062" cy="4.062" r="4.062" transform="translate(0)" fill="#fff"/>
        <circle id="Ellipse_8" data-name="Ellipse 8" cx="4.062" cy="4.062" r="4.062" transform="translate(0 9.47)" fill="#fff"/>
      </g>
    </g>
    <g id="Group_26" data-name="Group 26" transform="translate(0 5.354)">
      <path id="Path_62" data-name="Path 62" d="M1.135,6.888H.327a.33.33,0,0,1-.064-.006L.235,6.873A.33.33,0,0,1,.2,6.863a.334.334,0,0,1-.031-.016c-.008,0-.017-.008-.025-.014a.327.327,0,0,1-.091-.09C.05,6.735.046,6.726.041,6.718a.322.322,0,0,1-.016-.031.315.315,0,0,1-.01-.033c0-.009-.006-.018-.008-.028A.327.327,0,0,1,0,6.561V5.753a.326.326,0,0,1,.638-.094A4.089,4.089,0,0,0,.1.558.327.327,0,0,1,.558.1a4.743,4.743,0,0,1,.478,6.139h.1a.327.327,0,1,1,0,.653Z" transform="translate(12.653 0)" fill="#fff"/>
      <path id="Path_63" data-name="Path 63" d="M1.385,6.793A4.743,4.743,0,0,1,.907.653h-.1A.327.327,0,1,1,.807,0h.808A.331.331,0,0,1,1.68.006l.028.008a.338.338,0,0,1,.033.01.318.318,0,0,1,.031.016c.009,0,.017.008.026.014a.321.321,0,0,1,.091.091c.005.008.009.017.014.026A.322.322,0,0,1,1.917.2a.326.326,0,0,1,.01.033c0,.009.006.018.008.028a.327.327,0,0,1,.006.064v.808A.326.326,0,0,1,1.3,1.23a4.088,4.088,0,0,0,.542,5.1.327.327,0,0,1-.462.462Z" transform="translate(0 0)" fill="#fff"/>
    </g>
  </g>
</svg>
