<svg xmlns="http://www.w3.org/2000/svg" width="18.373" height="23.275" viewBox="0 0 18.373 23.275">
  <g id="Group_11141" data-name="Group 11141" transform="translate(472.205 331)">
    <path id="Path_9790" data-name="Path 9790" d="M-470.127-322.14V-328h-.831v5.86a1.6,1.6,0,0,0-1.247,1.556v6.78a1.6,1.6,0,0,0,1.247,1.556v2.535h.831v-2.535a1.6,1.6,0,0,0,1.247-1.556v-6.78A1.6,1.6,0,0,0-470.127-322.14Z" transform="translate(0 -0.506)" fill="#61bcf4"/>
    <path id="Path_9791" data-name="Path 9791" d="M-461.025-326.785V-331h-.831v4.215a1.658,1.658,0,0,0-1.247,1.6v9.144a1.658,1.658,0,0,0,1.247,1.6v6.709h.831v-6.709a1.658,1.658,0,0,0,1.247-1.6v-9.144A1.658,1.658,0,0,0-461.025-326.785Z" transform="translate(-1.536 0)" fill="#61bcf4"/>
    <path id="Path_9792" data-name="Path 9792" d="M-452.025-321.322V-328h-.831v6.678a1.529,1.529,0,0,0-1.247,1.5v6.085a1.529,1.529,0,0,0,1.247,1.5v2.522h.831v-2.522a1.528,1.528,0,0,0,1.247-1.5v-6.085A1.528,1.528,0,0,0-452.025-321.322Z" transform="translate(-3.054 -0.506)" fill="#61bcf4"/>
  </g>
</svg>
