<svg xmlns="http://www.w3.org/2000/svg" width="13.07" height="13.071" viewBox="0 0 13.07 13.071">
  <g id="Group_11430" data-name="Group 11430" transform="translate(33.928 -156.207)" opacity="0.499">
    <path id="Path_9857" data-name="Path 9857" d="M-33.928,311.255a2.451,2.451,0,0,1,.205-.27q3.156-3.162,6.316-6.321a.8.8,0,0,0,.089-.129l1.721,1.718a.549.549,0,0,0-.115.07q-3.183,3.18-6.365,6.361a1.934,1.934,0,0,1-.243.178H-32.5a2.9,2.9,0,0,1-.278-.215q-.474-.463-.937-.937a2.891,2.891,0,0,1-.215-.278Z" transform="translate(0 -143.586)" fill="#5D6676"/>
    <path id="Path_9858" data-name="Path 9858" d="M59.705,159.656a17.187,17.187,0,0,0-1.772-1.642,6.033,6.033,0,0,0-2.168-.919.576.576,0,0,1-.3-.17.367.367,0,0,1,.243-.586,6.259,6.259,0,0,1,3.853.418,6.155,6.155,0,0,1,1.743,1.161c.021.02.045.039.1.09a2.163,2.163,0,0,1,.174-.217.367.367,0,0,1,.555,0q.942.935,1.877,1.877a.372.372,0,0,1,0,.565c-.059.061-.122.117-.19.182.142.167.281.32.409.482a6.3,6.3,0,0,1,1.248,5.149c-.046.235-.172.365-.37.372s-.331-.121-.4-.347c-.109-.379-.2-.765-.344-1.132a5.22,5.22,0,0,0-1.194-1.807c-.323-.327-.649-.65-.974-.975-.017-.017-.038-.032-.056-.048-.341.3-.458.3-.782-.028l-1.643-1.643C59.4,160.123,59.4,160,59.705,159.656Z" transform="translate(-86.458 0)" fill="#5D6676"/>
  </g>
</svg>
