<svg xmlns="http://www.w3.org/2000/svg" width="12.699" height="13.914" viewBox="0 0 12.699 13.914">
  <g id="Group_11606" data-name="Group 11606" transform="translate(-345.65 -720)">
    <g id="Group_11418" data-name="Group 11418" transform="translate(190.115 505.939)">
      <path id="Path_9840" data-name="Path 9840" d="M304.486,214.061a.224.224,0,0,1,.079.163q0,1.385-.005,2.769l-.209,0q0-1.373,0-2.747a.2.2,0,0,1,.084-.184Z" transform="translate(-142.436)" fill="#5D6676"/>
      <path id="Path_9841" data-name="Path 9841" d="M326.9,254.625a.382.382,0,0,1,.2.367q-.006,5.636-.005,11.272c0,.211-.121.346-.3.343a.311.311,0,0,1-.295-.34c0-.027,0-.054,0-.081q0-5.582,0-11.163a.4.4,0,0,1,.2-.4Z" transform="translate(-163.639 -38.826)" fill="#5D6676"/>
      <path id="Path_9842" data-name="Path 9842" d="M300.071,282.438l.209,0a.36.36,0,0,1,.2.355q0,5.146,0,10.291a.3.3,0,1,1-.6,0q0-5.159,0-10.318A.323.323,0,0,1,300.071,282.438Z" transform="translate(-138.157 -65.447)" fill="#5D6676"/>
      <path id="Path_9843" data-name="Path 9843" d="M242.113,315.356a.316.316,0,0,1,.191.327q0,4.121,0,8.243c0,.221-.119.357-.3.353s-.293-.14-.293-.352q0-4.121,0-8.243a.318.318,0,0,1,.191-.327Z" transform="translate(-82.477 -96.954)" fill="#5D6676"/>
      <path id="Path_9844" data-name="Path 9844" d="M271.179,337.661a.284.284,0,0,1,.187.272c0,.027,0,.054,0,.081q0,3.831,0,7.663c0,.152-.022.292-.182.36a.3.3,0,0,1-.414-.253c0-.027,0-.054,0-.081q0-3.831,0-7.663c0-.16.012-.311.19-.38A.323.323,0,0,1,271.179,337.661Z" transform="translate(-110.293 -118.284)" fill="#5D6676"/>
      <path id="Path_9845" data-name="Path 9845" d="M212.956,363.493a.4.4,0,0,1,.2.383q-.007,2.685,0,5.37a1,1,0,0,1,0,.135.294.294,0,0,1-.572.054.559.559,0,0,1-.023-.2q0-2.678,0-5.357a.394.394,0,0,1,.2-.384Z" transform="translate(-54.572 -143.029)" fill="#5D6676"/>
      <path id="Path_9846" data-name="Path 9846" d="M184.5,344.465a.3.3,0,0,1,.19.312q0,2.589,0,5.178c0,.214-.114.343-.3.343s-.3-.129-.3-.343q0-2.589,0-5.178a.3.3,0,0,1,.19-.313Z" transform="translate(-27.333 -124.816)" fill="#5D6676"/>
      <path id="Path_9847" data-name="Path 9847" d="M360.332,236.114q0,3.045,0,6.089c0,.086.028.207-.1.211s-.109-.118-.109-.2q0-6.1,0-12.192c0-.032,0-.063,0-.095,0-.069.046-.092.109-.091s.1.024.1.085c0,.04,0,.081,0,.122Q360.332,233.076,360.332,236.114Z" transform="translate(-195.815 -15.095)" fill="#5D6676"/>
      <path id="Path_9848" data-name="Path 9848" d="M156.136,324.123q0,.956,0,1.913a.686.686,0,0,1-.027.241.28.28,0,0,1-.317.2.3.3,0,0,1-.253-.261.832.832,0,0,1,0-.095q0-1.994,0-3.988a.311.311,0,0,1,.121-.285.287.287,0,0,1,.307-.027.292.292,0,0,1,.17.272c0,.19,0,.38,0,.57Q156.136,323.39,156.136,324.123Z" transform="translate(0 -103.106)" fill="#5D6676"/>
      <path id="Path_9849" data-name="Path 9849" d="M389.219,251.913q0-2.684,0-5.369c0-.041,0-.082,0-.122a.087.087,0,0,1,.1-.088.1.1,0,0,1,.107.084.783.783,0,0,1,.006.148q0,5.382,0,10.764c0,.084-.007.167-.107.17-.119,0-.108-.1-.108-.178Q389.219,254.618,389.219,251.913Z" transform="translate(-223.67 -30.89)" fill="#5D6676"/>
      <path id="Path_9850" data-name="Path 9850" d="M417.715,276.993q0-2.122,0-4.244c0-.085-.03-.207.1-.209s.108.12.108.205q0,4.251,0,8.5a.767.767,0,0,1,0,.108.1.1,0,0,1-.11.1.1.1,0,0,1-.1-.094.8.8,0,0,1,0-.122Q417.715,279.115,417.715,276.993Z" transform="translate(-250.943 -55.973)" fill="#5D6676"/>
      <path id="Path_9851" data-name="Path 9851" d="M275.414,224.277a.323.323,0,0,0-.223,0q0-2.122.005-4.244c0-.221,0-.443,0-.664,0-.077-.021-.183.1-.187s.116.1.116.187q0,2.366,0,4.733C275.41,224.159,275.413,224.218,275.414,224.277Z" transform="translate(-114.529 -4.9)" fill="#5D6676"/>
      <path id="Path_9852" data-name="Path 9852" d="M217.286,251.344h-.208c0-.285,0-.569,0-.854q0-1.965,0-3.931a.419.419,0,0,1,.019-.174.093.093,0,0,1,.106-.063.087.087,0,0,1,.087.086c0,.022,0,.045,0,.068q0,2.413,0,4.825C217.289,251.317,217.287,251.331,217.286,251.344Z" transform="translate(-58.902 -30.88)" fill="#5D6676"/>
      <path id="Path_9853" data-name="Path 9853" d="M446.859,324.117q0-1.077,0-2.154a.381.381,0,0,1,0-.094.1.1,0,0,1,.107-.086.1.1,0,0,1,.1.082.541.541,0,0,1,.007.121q0,2.141,0,4.281a.521.521,0,0,1-.006.121.1.1,0,0,1-.108.084c-.064,0-.087-.041-.1-.093a.518.518,0,0,1,0-.095Q446.86,325.2,446.859,324.117Z" transform="translate(-278.84 -103.106)" fill="#5D6676"/>
      <path id="Path_9854" data-name="Path 9854" d="M246.383,233.487h-.216q0-1.727,0-3.453a.769.769,0,0,1,.007-.135.091.091,0,0,1,.109-.077c.059,0,.093.03.1.09,0,.041,0,.081,0,.122Q246.383,231.76,246.383,233.487Z" transform="translate(-86.748 -15.085)" fill="#5D6676"/>
      <path id="Path_9855" data-name="Path 9855" d="M188.737,275.523h-.219q0-1.438,0-2.876a.707.707,0,0,1,0-.122.1.1,0,0,1,.206,0,.7.7,0,0,1,0,.122Q188.736,274.085,188.737,275.523Z" transform="translate(-31.57 -55.874)" fill="#5D6676"/>
      <path id="Path_9856" data-name="Path 9856" d="M331.236,220.664h-.2q0-.69,0-1.38c0-.076.022-.137.11-.14s.1.07.1.14Q331.239,219.974,331.236,220.664Z" transform="translate(-167.972 -4.865)" fill="#5D6676"/>
    </g>
  </g>
</svg>
