<svg xmlns="http://www.w3.org/2000/svg" width="33.366" height="33.366" viewBox="0 0 33.366 33.366">
  <g id="Group_27" data-name="Group 27" transform="translate(-32.42 42.961) rotate(-45)">
    <circle id="Ellipse_7" data-name="Ellipse 7" cx="7.453" cy="7.453" r="7.453" transform="translate(45.849)" fill="#e0c89b"/>
    <circle id="Ellipse_8" data-name="Ellipse 8" cx="7.453" cy="7.453" r="7.453" transform="translate(45.849 17.375)" fill="#d7dae0"/>
    <g id="Group_26" data-name="Group 26" transform="translate(39.914 9.822)">
      <path id="Path_62" data-name="Path 62" d="M378.736,155.12h-1.483a.605.605,0,0,1-.118-.012c-.018,0-.034-.01-.052-.015a.347.347,0,0,1-.117-.049c-.015-.008-.031-.015-.046-.025a.6.6,0,0,1-.166-.166c-.01-.015-.017-.031-.025-.046a.6.6,0,0,1-.03-.057.58.58,0,0,1-.019-.061.533.533,0,0,1-.015-.051.6.6,0,0,1-.012-.118v-1.483a.6.6,0,0,1,1.171-.173,7.5,7.5,0,0,0-1-9.359.6.6,0,0,1,.848-.848,8.7,8.7,0,0,1,.876,11.264h.184a.6.6,0,1,1,0,1.2Z" transform="translate(-353.439 -142.482)" fill="#eaeaea"/>
      <path id="Path_63" data-name="Path 63" d="M42.454,154.944a8.7,8.7,0,0,1-.876-11.264h-.184a.6.6,0,1,1,0-1.2h1.483a.608.608,0,0,1,.118.012c.018,0,.034.01.051.015a.618.618,0,0,1,.061.019.584.584,0,0,1,.056.03c.016.008.032.015.047.025a.588.588,0,0,1,.166.166c.01.015.017.031.025.047a.59.59,0,0,1,.03.056.6.6,0,0,1,.019.061c0,.017.012.033.015.051a.6.6,0,0,1,.012.118v1.483a.6.6,0,0,1-1.17.173A7.5,7.5,0,0,0,43.3,154.1a.6.6,0,0,1-.848.848Z" transform="translate(-39.914 -142.481)" fill="#eaeaea"/>
    </g>
  </g>
</svg>
