<svg xmlns="http://www.w3.org/2000/svg" width="14.452" height="14.452" viewBox="0 0 14.452 14.452">
  <g id="Group_11590" data-name="Group 11590" transform="translate(11337 -3992.818)">
    <g id="Group_165" data-name="Group 165" transform="translate(-11337 3997.383) rotate(-45)">
      <g id="Group_164" data-name="Group 164" transform="translate(0)">
        <path id="Path_198" data-name="Path 198" d="M3.228,0A3.228,3.228,0,1,1,0,3.228,3.228,3.228,0,0,1,3.228,0Z" transform="translate(0)" fill="#5D6676"/>
        <circle id="Ellipse_8" data-name="Ellipse 8" cx="3.228" cy="3.228" r="3.228" transform="translate(0 7.525)" fill="#5D6676"/>
      </g>
    </g>
    <g id="Group_26" data-name="Group 26" transform="translate(-11336 4002.209) rotate(-45)">
      <path id="Path_62" data-name="Path 62" d="M377.555,147.956h-.642a.263.263,0,0,1-.051-.005l-.022-.007-.026-.008-.025-.013-.02-.011a.26.26,0,0,1-.072-.072c0-.006-.007-.013-.011-.02a.254.254,0,0,1-.013-.025.248.248,0,0,1-.008-.026c0-.007-.005-.015-.007-.022a.257.257,0,0,1-.005-.051v-.642a.259.259,0,0,1,.507-.075,3.249,3.249,0,0,0-.431-4.054.26.26,0,0,1,.367-.367,3.769,3.769,0,0,1,.379,4.879h.08a.26.26,0,1,1,0,.519Z" transform="translate(-366.598 -142.482)" fill="#5D6676"/>
      <path id="Path_63" data-name="Path 63" d="M41.014,147.879A3.769,3.769,0,0,1,40.634,143h-.08a.26.26,0,0,1,0-.519H41.2a.264.264,0,0,1,.051.005l.022.007.027.008.024.013.02.011a.254.254,0,0,1,.072.072c0,.006.007.014.011.02a.252.252,0,0,1,.013.024.26.26,0,0,1,.008.027c0,.007,0,.014.006.022a.26.26,0,0,1,.005.051v.642a.259.259,0,0,1-.507.075,3.249,3.249,0,0,0,.431,4.054.26.26,0,1,1-.367.367Z" transform="translate(-39.914 -142.481)" fill="#5D6676"/>
    </g>
  </g>
</svg>
