<svg xmlns="http://www.w3.org/2000/svg" width="30" height="30" viewBox="0 0 30 30">
  <g id="Group_11585" data-name="Group 11585" transform="translate(10863 -3284)">
    <g id="Group_11325" data-name="Group 11325" transform="translate(-11197 3101)">
      <rect id="Rectangle_408" data-name="Rectangle 408" width="30" height="30" rx="6" transform="translate(334 183)" fill="#373f50"/>
      <g id="Group_11323" data-name="Group 11323" transform="translate(-0.311)">
        <g id="Group_11320" data-name="Group 11320" transform="translate(-1384 -16)">
          <path id="Path_61" data-name="Path 61" d="M43.426,136.612a.444.444,0,0,0,0,.045l-.1,3.744a.2.2,0,0,1-.12.144.2.2,0,0,1-.088.015.2.2,0,0,1-.112-.041l-.739-.565a.438.438,0,0,0-.588.05l-2.754,2.977-.008.008a.841.841,0,0,1-.632.286h-.01a.841.841,0,0,1-.635-.3l-.012-.014-3.085-3.387a.438.438,0,0,0-.324-.143h-.021a.438.438,0,0,0-.33.176l-1.927,2.582a.841.841,0,1,1-1.338-1.021l2.9-3.859a.841.841,0,0,1,1.315-.032l.012.013,3.157,3.473a.438.438,0,0,0,.64.009l1.655-1.726a.438.438,0,0,0-.05-.651l-.666-.509a.2.2,0,0,1,.033-.341l3.522-1.133.034-.013a.2.2,0,0,1,.277.212Z" transform="translate(1697.08 73.677)" fill="#6e7c9a"/>
        </g>
        <g id="Group_11322" data-name="Group 11322">
          <path id="Path_9818" data-name="Path 9818" d="M-7134.622,1789.88v13.02h15.865" transform="translate(7476 -1598.89)" fill="none" stroke="#6e7c9a" stroke-linecap="round" stroke-width="1"/>
        </g>
      </g>
    </g>
  </g>
</svg>
