<svg xmlns="http://www.w3.org/2000/svg" width="16.309" height="18.5" viewBox="0 0 16.309 18.5">
  <g id="Group_11676" data-name="Group 11676" transform="translate(16532.859 -3983.465)">
    <g id="Group_11672" data-name="Group 11672" transform="translate(-16532.859 3983.465)">
      <path id="Path_9861" data-name="Path 9861" d="M95.752,184.672H83.321a.737.737,0,0,1-.474-.779q.012-7.116,0-14.231a.7.7,0,0,1,.742-.746c2.836.011,5.671.006,8.507.006H92.3v.238q0,1.481,0,2.962c0,.493.211.705.7.705H96.22v.263q0,5.391.005,10.782A.759.759,0,0,1,95.752,184.672Z" transform="translate(-82.846 -166.172)" fill="#5d6676"/>
      <path id="Path_9862" data-name="Path 9862" d="M177.035,93a.744.744,0,0,1,.473.782q-.011,7.1,0,14.2a.7.7,0,0,1-.784.778c-.359-.022-.721,0-1.1,0,0-.092-.011-.173-.011-.254q0-4.831,0-9.662a1.1,1.1,0,0,0-.352-.848q-1.5-1.465-2.968-2.958a1.033,1.033,0,0,0-.786-.327q-3.558.008-7.116,0h-.247c0-.412-.02-.814.007-1.213.018-.256.23-.392.45-.493Z" transform="translate(-161.202 -93)" fill="#5d6676"/>
      <path id="Path_9863" data-name="Path 9863" d="M376.595,182.744c-.051,0-.1.01-.154.01-.709,0-1.419,0-2.128,0-.148,0-.194-.039-.193-.191.008-.757,0-1.514,0-2.237l2.419,2.441Z" transform="translate(-363.596 -177.175)" fill="#5d6676"/>
    </g>
  </g>
</svg>
