<svg xmlns="http://www.w3.org/2000/svg" width="31.58" height="31.58" viewBox="0 0 31.58 31.58">
  <g id="Group_243" data-name="Group 243" transform="translate(-3.973 13.949) rotate(-45)">
    <g id="Group_165" data-name="Group 165" transform="translate(5.618 0)">
      <g id="Group_164" data-name="Group 164" transform="translate(0 0)">
        <circle id="Ellipse_7" data-name="Ellipse 7" cx="7.054" cy="7.054" r="7.054" transform="translate(0)" fill="#61bcf4"/>
        <circle id="Ellipse_8" data-name="Ellipse 8" cx="7.054" cy="7.054" r="7.054" transform="translate(0 16.445)" fill="#1d1f21"/>
      </g>
    </g>
    <g id="Group_26" data-name="Group 26" transform="translate(0 9.297)">
      <path id="Path_62" data-name="Path 62" d="M1.972,11.962H.568a.572.572,0,0,1-.112-.011.507.507,0,0,1-.049-.015.573.573,0,0,1-.057-.018A.579.579,0,0,1,.3,11.89c-.015-.008-.03-.014-.044-.024A.568.568,0,0,1,.1,11.709C.086,11.7.08,11.68.072,11.665a.56.56,0,0,1-.028-.054.547.547,0,0,1-.018-.057c0-.016-.011-.032-.014-.049A.568.568,0,0,1,0,11.394V9.99a.566.566,0,0,1,1.108-.164A7.1,7.1,0,0,0,.166.969a.567.567,0,0,1,.8-.8A8.236,8.236,0,0,1,1.8,10.827h.174a.567.567,0,1,1,0,1.135Z" transform="translate(21.972 0)" fill="#121212"/>
      <path id="Path_63" data-name="Path 63" d="M2.4,11.8A8.236,8.236,0,0,1,1.575,1.135H1.4A.567.567,0,1,1,1.4,0h1.4a.575.575,0,0,1,.112.011c.017,0,.032.01.048.014a.586.586,0,0,1,.058.018.553.553,0,0,1,.053.028c.015.008.03.015.044.024a.557.557,0,0,1,.157.157c.009.014.016.03.024.044A.56.56,0,0,1,3.33.35a.567.567,0,0,1,.018.058c0,.016.011.031.014.048a.569.569,0,0,1,.011.112v1.4a.566.566,0,0,1-1.108.164,7.1,7.1,0,0,0,.942,8.858.567.567,0,1,1-.8.8Z" fill="#121212"/>
    </g>
  </g>
</svg>
