<svg xmlns="http://www.w3.org/2000/svg" width="29.833" height="20.977" viewBox="0 0 29.833 20.977">
  <path id="wallet_1_" data-name="wallet (1)" d="M26.57,5.253V1.165A1.165,1.165,0,0,0,25.4,0H1.165A1.165,1.165,0,0,0,0,1.165V19.811a1.165,1.165,0,0,0,1.165,1.165H25.4a1.165,1.165,0,0,0,1.165-1.165V15.724a3.5,3.5,0,0,0,3.263-3.487V8.74A3.5,3.5,0,0,0,26.57,5.253ZM24.24,18.646H2.331V2.331H24.24V5.244H19a5.244,5.244,0,0,0,0,10.488H24.24Zm3.263-6.41A1.167,1.167,0,0,1,26.337,13.4H19.056a2.951,2.951,0,0,1-2.972-2.838A2.916,2.916,0,0,1,19,7.575h7.342A1.167,1.167,0,0,1,27.5,8.74Zm-7.167-1.748a1.457,1.457,0,1,1-1.457-1.457A1.457,1.457,0,0,1,20.336,10.488Zm0,0" fill="#fff"/>
</svg>
