<svg xmlns="http://www.w3.org/2000/svg" width="74" height="74" viewBox="0 0 74 74">
  <g id="Group_157" data-name="Group 157" transform="translate(-729 -584)">
    <circle id="Ellipse_2" data-name="Ellipse 2" cx="37" cy="37" r="37" transform="translate(729 584)" fill="#42454a"/>
    <g id="Group_19" data-name="Group 19" transform="translate(699.487 592.461)">
      <path id="Path_56" data-name="Path 56" d="M195.538,8.039a11.554,11.554,0,1,0,11.554,11.554A11.555,11.555,0,0,0,195.538,8.039Z" transform="translate(-123.711)" fill="#17a2b8"/>
      <path id="Path_57" data-name="Path 57" d="M48,306.147v8.69h.787a9.681,9.681,0,0,1,1.414.108l17.608,2.7a.751.751,0,0,0,.505-.083l16.428-9.484a1.447,1.447,0,0,0,0-2.505,1.446,1.446,0,0,0-1.447,0L74.5,310.648a2.878,2.878,0,0,1-2.376,1.264c-.169,0-9.789-1.416-9.789-1.416a.722.722,0,1,1,.209-1.428s9.177,1.345,9.2,1.353a1.489,1.489,0,0,0,1.617-.671h0v-.006a1.343,1.343,0,0,0,.144-.34,1.449,1.449,0,0,0-1.021-1.773l-6.77-1.2a12.186,12.186,0,0,1-3.19-1.2,11.48,11.48,0,0,0-10.217-.043,6.454,6.454,0,0,1-1.061.423A12.932,12.932,0,0,1,48,306.147Z" transform="translate(0 -269.246)" fill="#17a2b8"/>
    </g>
  </g>
</svg>
