<svg width="54" height="55" viewBox="0 0 54 55" fill="none" xmlns="http://www.w3.org/2000/svg">
<g opacity="0.6" filter="url(#filter0_f_0_3)">
<path d="M25.9393 28.0607C26.5251 28.6464 27.4749 28.6464 28.0607 28.0607L37.6066 18.5147C38.1924 17.9289 38.1924 16.9792 37.6066 16.3934C37.0208 15.8076 36.0711 15.8076 35.4853 16.3934L27 24.8787L18.5147 16.3934C17.9289 15.8076 16.9792 15.8076 16.3934 16.3934C15.8076 16.9792 15.8076 17.9289 16.3934 18.5147L25.9393 28.0607ZM25.5 26L25.5 26.5L28.5 26.5L28.5 26L25.5 26ZM25.5 26.5L25.5 27L28.5 27L28.5 26.5L25.5 26.5Z" fill="white"/>
<path d="M25.9393 39.0607C26.5251 39.6464 27.4749 39.6464 28.0607 39.0607L37.6066 29.5147C38.1924 28.9289 38.1924 27.9792 37.6066 27.3934C37.0208 26.8076 36.0711 26.8076 35.4853 27.3934L27 35.8787L18.5147 27.3934C17.9289 26.8076 16.9792 26.8076 16.3934 27.3934C15.8076 27.9792 15.8076 28.9289 16.3934 29.5147L25.9393 39.0607ZM25.5 37L25.5 37.5L28.5 37.5L28.5 37L25.5 37ZM25.5 37.5L25.5 38L28.5 38L28.5 37.5L25.5 37.5Z" fill="#33BFFA"/>
</g>
<path d="M25.9393 28.0607C26.5251 28.6464 27.4749 28.6464 28.0607 28.0607L37.6066 18.5147C38.1924 17.9289 38.1924 16.9792 37.6066 16.3934C37.0208 15.8076 36.0711 15.8076 35.4853 16.3934L27 24.8787L18.5147 16.3934C17.9289 15.8076 16.9792 15.8076 16.3934 16.3934C15.8076 16.9792 15.8076 17.9289 16.3934 18.5147L25.9393 28.0607ZM25.5 26L25.5 26.5L28.5 26.5L28.5 26L25.5 26ZM25.5 26.5L25.5 27L28.5 27L28.5 26.5L25.5 26.5Z" fill="white"/>
<path d="M25.9393 39.0607C26.5251 39.6464 27.4749 39.6464 28.0607 39.0607L37.6066 29.5147C38.1924 28.9289 38.1924 27.9792 37.6066 27.3934C37.0208 26.8076 36.0711 26.8076 35.4853 27.3934L27 35.8787L18.5147 27.3934C17.9289 26.8076 16.9792 26.8076 16.3934 27.3934C15.8076 27.9792 15.8076 28.9289 16.3934 29.5147L25.9393 39.0607ZM25.5 37L25.5 37.5L28.5 37.5L28.5 37L25.5 37ZM25.5 37.5L25.5 38L28.5 38L28.5 37.5L25.5 37.5Z" fill="#33BFFA"/>
<defs>
<filter id="filter0_f_0_3" x="0.954058" y="0.954058" width="52.0919" height="53.5459" filterUnits="userSpaceOnUse" color-interpolation-filters="sRGB">
<feFlood flood-opacity="0" result="BackgroundImageFix"/>
<feBlend mode="normal" in="SourceGraphic" in2="BackgroundImageFix" result="shape"/>
<feGaussianBlur stdDeviation="7.5" result="effect1_foregroundBlur_0_3"/>
</filter>
</defs>
</svg>
